# xmcd CD database file
#
# Track frame offsets:
#	150
#	14655
#	26665
#	39747
#	52497
#	62091
#	76259
#	89153
#	102698
#	116323
#	128524
#	140878
#	155441
#	168874
#	181480
#	195946
#	208982
#	217739
#	238690
#	256552
#	270542
#
# Disc length: 3779 seconds
#
# Revision: 0
# Processed by: cddbd v1.5.2PL0 Copyright (c) Steve Scherf et al.
# Submitted via: CDex 1.51
#
DISCID=300ec115
DTITLE=Various Artist - Drivetime Jazz
DYEAR=2009
DGENRE=Jazz
TTITLE0=Doin' the Voom Voom - Duke Ellington
TTITLE1=Take me for a Buggy Ride - Bessy Smith
TTITLE2=Waiting at the end of the road - Bix and Bing
TTITLE3=Harlem River Quibble - Duke Ellington
TTITLE4=Shimme-sha-wobble - Louis Armstrong
TTITLE5=Tailspin Blues - Jack Teagarden
TTITLE6=St Louis Shuffle - Coleman Hawkins with Fletcher Henderson
TTITLE7=Harlemania - Duke Ellington
TTITLE8=Washington Wobble - Duke Ellington
TTITLE9=Two tickets to Georgia - Jack Teagarden
TTITLE10='39-'25-'39 - Coleman Hawkins with Billy Byers
TTITLE11=Sugar Foot Stomp - Coleman Hawkins with Fletcher Henderson
TTITLE12=Wherever there's a will, there's a way - Coleman Hawkins with McKinney's Cotton Pickers
TTITLE13=T'aint so, honey,t'aint so - Bix and Bing
TTITLE14=King Porter Stomp - Benny Goodman
TTITLE15=Snug as a bug in a rug - Artie Shaw
TTITLE16=Milenberg Joys - Louis Armstrong
TTITLE17=Where the Blues are born in New Orleons - Louis Armstrong
TTITLE18=One O'clock Jump - Benny Goodman
TTITLE19=From Monday On - Bix and Bing
TTITLE20=West End Blues - Louis Armstrong
EXTD=YEAR: 2009
EXTT0=
EXTT1=
EXTT2=
EXTT3=
EXTT4=
EXTT5=
EXTT6=
EXTT7=
EXTT8=
EXTT9=
EXTT10=
EXTT11=
EXTT12=
EXTT13=
EXTT14=
EXTT15=
EXTT16=
EXTT17=
EXTT18=
EXTT19=
EXTT20=
PLAYORDER=
